# xmcd
#
# Track frame offsets:
# 150
# 17389
# 32689
# 50955
# 68673
# 84733
# 99298
# 112059
# 129259
# 143728
# 161216
# 172208
# 187159
# 204857
# 224573
# 241671
# 258238
# 273851
# 289897
# 308475
#
# Disc length: 4318 seconds
#
# Revision: 1
# Processed by: cddbd v1.5.1PL0 Copyright (c) Steve Scherf et al.
# Submitted via: CedeCatalogueitor 2.6.0.4 http://personales.ya.com/cdcatalogueitor
#
DISCID=2110dc14
DTITLE=Varios - Top 100 Country CD 1
DYEAR=1900
DGENRE=
TTITLE0=Unanswered Prayer
TTITLE1=The Heart Won't Lie
TTITLE2=Piece Of My Heart
TTITLE3=Forever Love
TTITLE4=I Cross My Heart
TTITLE5=That Was A River
TTITLE6=What's It To You
TTITLE7=Antmore
TTITLE8=Life's A Dance
TTITLE9=Clint Black
TTITLE10=Dance With The One That Brought You
TTITLE11=Someday
TTITLE12=Your Love Amazes Me
TTITLE13=When You Say Nothing At All
TTITLE14=It's Your Love
TTITLE15=She'd Give Anything
TTITLE16=She Never Cried
TTITLE17=I Never Knew Love
TTITLE18=She's In Love With The Boy
TTITLE19=No Doubt About It
EXTD=
EXTT0=
EXTT1=
EXTT2=
EXTT3=
EXTT4=
EXTT5=
EXTT6=
EXTT7=
EXTT8=
EXTT9=
EXTT10=
EXTT11=
EXTT12=
EXTT13=
EXTT14=
EXTT15=
EXTT16=
EXTT17=
EXTT18=
EXTT19=
PLAYORDER=
